# xmcd
#
# Track frame offsets:
#	150
#	14295
#	25646
#	37689
#	52277
#	65857
#	77920
#	87451
#	107326
#	117489
#
# Disc length: 1756 seconds
#
# Revision: 1
# Processed by: cddbd v1.5.2PL0 Copyright (c) Steve Scherf et al.
# Submitted via: audiograbber 1.83.01
#
DISCID=7d06da0a
DTITLE=Naomi Jean - Naomi Jean Naomi Jean
DYEAR=2000
DGENRE=
TTITLE0=He´s Not With Me
TTITLE1=Come In Out Of The Pain
TTITLE2=Number Me, Number One
TTITLE3=Forever Chained
TTITLE4=Neon Lights
TTITLE5=How Nuch Hurting
TTITLE6=Trough The Texas Night
TTITLE7=Brand New Start
TTITLE8=From Freinds To Lovers
TTITLE9=The End Time
EXTD=
EXTT0=
EXTT1=
EXTT2=
EXTT3=
EXTT4=
EXTT5=
EXTT6=
EXTT7=
EXTT8=
EXTT9=
PLAYORDER=
